<svg width="248" height="200" viewBox="0 0 248 200" fill="none" xmlns="http://www.w3.org/2000/svg">
<g opacity="0.5">
<path opacity="0.5" d="M234.942 49.7221H201.016V36.7399C201.016 29.2318 194.926 23.1417 187.418 23.1417H32.0847C25.2682 23.1417 19.7476 28.6681 19.7476 35.4789V49.728H14.6395C6.71884 49.728 0.291652 56.1435 0.280029 64.0642V128.423C0.285841 135.931 6.0738 142.167 13.5586 142.725V157.282H28.0576V142.765H46.3164V157.404H60.8153V142.765H191.318V157.404H205.816V142.765H217.904V157.264H232.42V142.765H235.035C242.195 142.765 248 136.966 248 129.806V62.7915C248.012 55.574 242.16 49.7221 234.942 49.7221ZM198.46 106.515V117.388H144.398C144.985 116.342 145.293 115.156 145.287 113.959V106.515H198.46Z" fill="url(#paint0_linear)"/>
</g>
<path d="M31.6432 137.332H17.6788V154.783H31.6432V137.332Z" fill="#6C63FF"/>
<path d="M202.818 137.46H188.854V154.911H202.818V137.46Z" fill="#6C63FF"/>
<path d="M228.416 137.332H214.452V154.783H228.416V137.332Z" fill="#6C63FF"/>
<path d="M63.1862 137.46H49.2219V154.911H63.1862V137.46Z" fill="#6C63FF"/>
<path opacity="0.3" d="M31.6432 137.332H17.6788V154.783H31.6432V137.332Z" fill="black"/>
<path opacity="0.3" d="M202.818 137.46H188.854V154.911H202.818V137.46Z" fill="black"/>
<path opacity="0.3" d="M228.416 137.332H214.452V154.783H228.416V137.332Z" fill="black"/>
<path opacity="0.3" d="M63.1862 137.46H49.2219V154.911H63.1862V137.46Z" fill="black"/>
<path d="M195.705 51.2273H230.834C237.784 51.2273 243.415 56.8583 243.415 63.8085V128.342C243.415 135.234 237.825 140.824 230.932 140.824H195.705V51.2273Z" fill="#6C63FF"/>
<path opacity="0.3" d="M195.705 51.2273H230.834C237.784 51.2273 243.415 56.8583 243.415 63.8085V128.342C243.415 135.234 237.825 140.824 230.932 140.824H195.705V51.2273Z" fill="black"/>
<path d="M35.5018 25.6289H102.749V105.916H23.6237V37.5012C23.6237 30.9462 28.9409 25.6289 35.5018 25.6289Z" fill="#6C63FF"/>
<path opacity="0.3" d="M35.8853 25.6289H102.749V105.916H23.6237V37.8847C23.6237 31.1147 29.1094 25.6289 35.8853 25.6289C35.8795 25.6289 35.8853 25.6289 35.8853 25.6289Z" fill="black"/>
<path d="M53.7082 25.6289H118.91V105.916H39.7845V39.5467C39.7845 31.8585 46.0142 25.6289 53.7082 25.6289Z" fill="#6C63FF"/>
<path d="M118.526 25.6289H185.07C192.3 25.6289 198.163 31.4924 198.163 38.7215V105.916H118.526V25.6289Z" fill="#6C63FF"/>
<path d="M217.811 51.2273H230.834C237.778 51.2331 243.409 56.8641 243.409 63.8085V128.342C243.409 135.234 237.819 140.824 230.927 140.824H217.811V51.2273Z" fill="#6C63FF"/>
<path d="M217.811 116.388H57.2356V140.824H217.811V116.388Z" fill="#6C63FF"/>
<path d="M76.5869 59.4908L94.1309 54.3769C101.854 52.128 109.943 56.5619 112.198 64.285L118.009 84.2233C120.258 91.9464 115.824 100.036 108.101 102.29L90.557 107.404C82.8339 109.653 74.7447 105.219 72.49 97.4961L66.6788 77.5578C64.424 69.8289 68.8638 61.7397 76.5869 59.4908Z" fill="url(#paint1_linear)"/>
<path d="M76.8078 61.5247L93.1663 56.7537C100.372 54.6558 107.915 58.7934 110.013 65.9935L115.435 84.5893C117.533 91.7952 113.395 99.3382 106.195 101.436L89.8365 106.207C82.6306 108.305 75.0876 104.167 72.9898 96.9672L67.5679 78.3714C65.4643 71.1655 69.6019 63.6283 76.8078 61.5247Z" fill="#F55F44"/>
<path opacity="0.1" d="M76.8078 61.5247L93.1663 56.7537C100.372 54.6558 107.915 58.7934 110.013 65.9935L115.435 84.5893C117.533 91.7952 113.395 99.3382 106.195 101.436L89.8365 106.207C82.6306 108.305 75.0876 104.167 72.9898 96.9672L67.5679 78.3714C65.4643 71.1655 69.6019 63.6283 76.8078 61.5247Z" fill="black"/>
<path d="M77.6504 60.932L94.0089 56.161C101.215 54.0631 108.758 58.2007 110.856 65.4008L116.277 83.9966C118.375 91.2025 114.238 98.7455 107.038 100.843L90.6791 105.614C83.4732 107.712 75.9303 103.575 73.8324 96.3745L68.4106 77.7786C66.3069 70.5728 70.4445 63.0356 77.6504 60.932Z" fill="#F55F44"/>
<path d="M88.5057 72.8565C90.4346 72.8565 91.9983 71.2929 91.9983 69.364C91.9983 67.4351 90.4346 65.8715 88.5057 65.8715C86.5768 65.8715 85.0132 67.4351 85.0132 69.364C85.0132 71.2929 86.5768 72.8565 88.5057 72.8565Z" fill="url(#paint2_linear)"/>
<path d="M105.207 82.445C107.136 82.445 108.7 80.8813 108.7 78.9524C108.7 77.0236 107.136 75.4599 105.207 75.4599C103.278 75.4599 101.715 77.0236 101.715 78.9524C101.715 80.8813 103.278 82.445 105.207 82.445Z" fill="url(#paint3_linear)"/>
<path d="M79.3008 92.1265C81.2296 92.1265 82.7933 90.5628 82.7933 88.6339C82.7933 86.7051 81.2296 85.1414 79.3008 85.1414C77.3719 85.1414 75.8082 86.7051 75.8082 88.6339C75.8082 90.5628 77.3719 92.1265 79.3008 92.1265Z" fill="url(#paint4_linear)"/>
<path d="M95.0492 102.389C96.978 102.389 98.5417 100.825 98.5417 98.8966C98.5417 96.9677 96.978 95.404 95.0492 95.404C93.1203 95.404 91.5566 96.9677 91.5566 98.8966C91.5566 100.825 93.1203 102.389 95.0492 102.389Z" fill="url(#paint5_linear)"/>
<path d="M88.5058 71.6885C89.7895 71.6885 90.8302 70.6478 90.8302 69.364C90.8302 68.0803 89.7895 67.0396 88.5058 67.0396C87.222 67.0396 86.1813 68.0803 86.1813 69.364C86.1813 70.6478 87.222 71.6885 88.5058 71.6885Z" fill="#F99F8F"/>
<path d="M105.207 81.277C106.491 81.277 107.532 80.2362 107.532 78.9525C107.532 77.6687 106.491 76.628 105.207 76.628C103.923 76.628 102.883 77.6687 102.883 78.9525C102.883 80.2362 103.923 81.277 105.207 81.277Z" fill="#F99F8F"/>
<path d="M79.3008 90.9585C80.5846 90.9585 81.6253 89.9178 81.6253 88.634C81.6253 87.3502 80.5846 86.3095 79.3008 86.3095C78.017 86.3095 76.9763 87.3502 76.9763 88.634C76.9763 89.9178 78.017 90.9585 79.3008 90.9585Z" fill="#F99F8F"/>
<path d="M95.0492 101.221C96.333 101.221 97.3737 100.18 97.3737 98.8966C97.3737 97.6128 96.333 96.5721 95.0492 96.5721C93.7654 96.5721 92.7247 97.6128 92.7247 98.8966C92.7247 100.18 93.7654 101.221 95.0492 101.221Z" fill="#F99F8F"/>
<path d="M18.7016 51.2273H70.0319V140.819H18.7016C11.0656 140.819 4.87671 134.63 4.87671 127V65.0521C4.87671 57.4162 11.0656 51.2273 18.7016 51.2273Z" fill="#6C63FF"/>
<path opacity="0.3" d="M18.8004 51.2273H57.1601C64.273 51.2273 70.0435 56.992 70.0435 64.1107C70.0435 64.1165 70.0435 64.1165 70.0435 64.1223V127.947C70.0435 135.06 64.2788 140.83 57.1601 140.83H18.8004C11.1121 140.83 4.87671 134.595 4.87671 126.907V65.1393C4.88252 57.4511 11.1121 51.2273 18.8004 51.2273Z" fill="black"/>
<path opacity="0.1" d="M44.5673 51.2273H66.9869C69.3869 51.2273 71.3279 53.1682 71.3279 55.5682V136.483C71.3279 138.883 69.3869 140.824 66.9869 140.824H44.5673V51.2273Z" fill="black"/>
<path d="M43.2771 51.2273H65.6967C68.0968 51.2273 70.0377 53.1682 70.0377 55.5682V136.483C70.0377 138.883 68.0968 140.824 65.6967 140.824H43.2771V51.2273Z" fill="#6C63FF"/>
<path d="M144.508 97.7691H64.2207V119.881H144.508V97.7691Z" fill="#6C63FF"/>
<path d="M224.924 97.897H144.636V120.009H224.924V97.897Z" fill="#6C63FF"/>
<path opacity="0.15" d="M71.014 97.7691H137.715C141.469 97.7691 144.508 100.808 144.508 104.562V113.087C144.508 116.842 141.469 119.881 137.715 119.881H71.014C67.26 119.881 64.2207 116.842 64.2207 113.087V104.562C64.2207 100.814 67.26 97.7691 71.014 97.7691Z" fill="white"/>
<path d="M153.876 57.1082C156.447 57.1082 158.531 55.0241 158.531 52.4534C158.531 49.8826 156.447 47.7986 153.876 47.7986C151.305 47.7986 149.221 49.8826 149.221 52.4534C149.221 55.0241 151.305 57.1082 153.876 57.1082Z" fill="#6C63FF"/>
<path opacity="0.3" d="M153.876 57.1082C156.447 57.1082 158.531 55.0241 158.531 52.4534C158.531 49.8826 156.447 47.7986 153.876 47.7986C151.305 47.7986 149.221 49.8826 149.221 52.4534C149.221 55.0241 151.305 57.1082 153.876 57.1082Z" fill="black"/>
<path d="M81.7414 57.1082C84.3122 57.1082 86.3962 55.0241 86.3962 52.4534C86.3962 49.8826 84.3122 47.7986 81.7414 47.7986C79.1707 47.7986 77.0867 49.8826 77.0867 52.4534C77.0867 55.0241 79.1707 57.1082 81.7414 57.1082Z" fill="#6C63FF"/>
<path opacity="0.3" d="M81.7414 57.1082C84.3122 57.1082 86.3962 55.0241 86.3962 52.4534C86.3962 49.8826 84.3122 47.7986 81.7414 47.7986C79.1707 47.7986 77.0867 49.8826 77.0867 52.4534C77.0867 55.0241 79.1707 57.1082 81.7414 57.1082Z" fill="black"/>
<path d="M79.4111 27.8895C80.053 27.8895 80.5734 27.109 80.5734 26.1461C80.5734 25.1833 80.053 24.4028 79.4111 24.4028C78.7693 24.4028 78.2489 25.1833 78.2489 26.1461C78.2489 27.109 78.7693 27.8895 79.4111 27.8895Z" fill="#FDA57D"/>
<path opacity="0.15" d="M151.429 97.897H218.13C221.884 97.897 224.924 100.936 224.924 104.69V113.215C224.924 116.969 221.884 120.009 218.13 120.009H151.429C147.675 120.009 144.636 116.969 144.636 113.215V104.69C144.636 100.942 147.675 97.897 151.429 97.897Z" fill="white"/>
<g opacity="0.5">
<path opacity="0.5" d="M172.013 53.1391C171.478 50.2045 170.932 47.2349 169.712 44.5095C168.375 41.5109 166.289 38.9075 163.645 36.9607C163.249 36.6644 162.767 36.5191 162.273 36.5539C161.506 36.6179 161.274 37.0886 161.152 37.5767C161.134 37.6348 161.123 37.6929 161.111 37.7511C160.809 39.2387 161.012 40.709 161.448 42.1618C161.994 43.9749 162.907 45.7356 163.662 47.4906C165.028 50.6287 165.934 53.9527 166.353 57.3464C166.411 57.7939 166.451 58.2588 166.463 58.7179C166.469 58.991 166.463 59.2699 166.44 59.5431C166.405 60.0835 166.283 60.6123 166.08 61.1063C166.045 61.1876 166.004 61.2748 165.963 61.362C165.923 61.4491 165.876 61.5305 165.83 61.5944C165.365 62.3615 164.638 62.9078 163.929 63.4482C163.22 63.9886 162.413 64.5639 161.564 64.8545H161.593C161.198 64.9998 160.78 65.0637 160.361 65.0579C159.054 65.0172 157.653 63.9596 156.334 64.2095L156.189 64.2443C154.841 64.6104 153.806 66.7315 153.795 68.0739C153.795 68.1785 153.795 68.2831 153.795 68.3877C153.795 68.4226 153.795 68.4575 153.806 68.4923C153.818 68.5272 153.824 68.626 153.83 68.6899C153.841 68.7538 153.847 68.7713 153.853 68.8061C153.864 68.8468 153.876 68.9223 153.893 68.9747C153.911 69.027 153.917 69.056 153.928 69.0909C153.94 69.1316 153.963 69.1955 153.981 69.2478C153.998 69.3001 154.01 69.3233 154.027 69.3582C154.045 69.3931 154.068 69.457 154.091 69.5035L154.149 69.6081C154.172 69.6488 154.196 69.6952 154.225 69.7417L154.289 69.8463L154.376 69.9684L154.451 70.0613L154.55 70.1718L154.631 70.2589L154.742 70.3635L154.829 70.4449L154.951 70.5437L155.044 70.6192L155.172 70.7064L155.271 70.7703L155.416 70.8575L155.515 70.9156L155.678 70.997L155.77 71.0434C155.846 71.0783 155.927 71.1132 156.003 71.1422L156.119 71.1829L156.305 71.2468L156.439 71.2875L156.59 71.334L156.735 71.3747L156.88 71.4095L157.037 71.4444L157.177 71.4735L157.345 71.5025L157.479 71.5258L157.647 71.549L157.775 71.5664L157.955 71.5839H158.083H158.269H158.386H158.577H158.978H159.187H159.263L159.49 71.5664H159.53C160.17 71.5083 160.797 71.3747 161.396 71.1539C163.302 70.4333 164.923 69.1083 166.422 67.7252C169.398 64.9824 172.205 61.5712 172.443 57.5324C172.547 56.0622 172.274 54.5919 172.013 53.1391Z" fill="url(#paint6_linear)"/>
</g>
<path opacity="0.1" d="M159.443 52.1687H135.367V59.1363H159.443V52.1687Z" fill="black"/>
<path d="M159.443 52.1687H135.367V58.5029H159.443V52.1687Z" fill="#6C63FF"/>
<path d="M149.303 53.0112C151.402 53.0112 153.103 51.3097 153.103 49.2107C153.103 47.1117 151.402 45.4102 149.303 45.4102C147.204 45.4102 145.502 47.1117 145.502 49.2107C145.502 51.3097 147.204 53.0112 149.303 53.0112Z" fill="#6C63FF"/>
<path d="M142.137 55.0627L142.091 55.0162C142.399 54.7837 142.457 54.3421 142.224 54.0341C142.184 53.9818 142.137 53.9353 142.091 53.9004L142.132 53.8481C142.469 54.1096 142.527 54.5862 142.265 54.9232C142.23 54.9755 142.184 55.022 142.137 55.0627Z" fill="#4D8AF0"/>
<path opacity="0.1" d="M142.137 55.0627L142.091 55.0162C142.399 54.7837 142.457 54.3421 142.224 54.0341C142.184 53.9818 142.137 53.9353 142.091 53.9004L142.132 53.8481C142.469 54.1096 142.527 54.5862 142.265 54.9232C142.23 54.9755 142.184 55.022 142.137 55.0627Z" fill="black"/>
<path d="M142.091 55.0627C141.754 54.8012 141.696 54.3246 141.957 53.9876C141.998 53.9353 142.044 53.8888 142.091 53.8539L142.132 53.9062C141.824 54.1387 141.765 54.5803 141.998 54.8883C142.039 54.9406 142.085 54.9871 142.132 55.022L142.091 55.0627Z" fill="#4D8AF0"/>
<path d="M161.558 75.5065C163.302 74.844 164.784 73.6353 166.155 72.3684C168.875 69.858 171.437 66.749 171.658 63.0531C171.74 61.7049 171.495 60.3625 171.251 59.0317C170.763 56.3527 170.263 53.6389 169.159 51.1459C167.939 48.4088 166.033 46.032 163.615 44.248C163.255 43.9749 162.814 43.8412 162.36 43.8761C161.593 43.9458 161.401 44.4688 161.297 44.9744C160.675 48.0369 162.378 51.0122 163.627 53.8713C164.876 56.7421 165.702 59.7755 166.085 62.8787C166.248 64.1979 166.306 65.6216 165.609 66.7548C165.184 67.4521 164.522 67.9577 163.871 68.4458C162.901 69.1781 161.826 69.9451 160.611 69.9103C159.397 69.8754 158.037 68.8294 156.781 69.1664C155.526 69.5035 154.602 71.4386 154.596 72.6764C154.585 76.0411 159.228 76.3898 161.558 75.5065Z" fill="#FFD180"/>
<g opacity="0.1">
<path opacity="0.1" d="M165.609 66.7606C165.185 67.458 164.522 67.9635 163.871 68.4517C163.22 68.9863 162.494 69.4164 161.71 69.7302C162.814 69.6546 163.802 68.9631 164.696 68.2774C165.347 67.7892 166.01 67.2778 166.434 66.5863C167.126 65.4531 167.067 64.0352 166.911 62.7102C166.527 59.607 165.702 56.5736 164.452 53.7029C163.209 50.8379 161.5 47.8626 162.122 44.8059C162.157 44.4398 162.343 44.1027 162.634 43.8819C162.541 43.8761 162.442 43.8761 162.349 43.8819C161.582 43.9517 161.39 44.4747 161.285 44.9802C160.664 48.0427 162.366 51.0181 163.616 53.8772C164.865 56.7479 165.69 59.7814 166.074 62.8846C166.242 64.2037 166.306 65.6274 165.609 66.7606Z" fill="black"/>
<path opacity="0.1" d="M155.433 72.5138C155.433 71.369 156.247 69.6315 157.345 69.1085C157.159 69.1026 156.973 69.1259 156.793 69.1724C155.561 69.5094 154.614 71.4446 154.608 72.6823C154.591 75.8146 158.624 76.326 161.064 75.6693C158.635 76.0238 155.416 75.3032 155.433 72.5138Z" fill="black"/>
</g>
<g opacity="0.5">
<path opacity="0.5" d="M137.645 37.6058C137.645 37.6058 144.601 36.2111 148.082 37.6058C148.082 37.6058 150.168 32.736 152.255 32.736C154.341 32.736 155.038 40.3952 155.038 40.3952L157.822 51.5236C157.822 51.5236 171.036 75.1752 157.822 87.6926C144.607 100.21 123.739 86.2921 123.739 77.2498C123.739 68.2076 127.911 49.4258 127.911 49.4258C127.911 49.4258 132.084 34.1249 133.479 32.7302C134.873 31.3355 137.645 37.6058 137.645 37.6058Z" fill="url(#paint7_linear)"/>
</g>
<path d="M137.883 38.5763C137.883 38.5763 144.572 37.2397 147.914 38.5763C147.914 38.5763 149.919 33.8925 151.923 33.8925C153.928 33.8925 154.597 41.2495 154.597 41.2495L157.27 51.9479C157.27 51.9479 169.973 74.6755 157.27 86.7163C144.566 98.7571 124.506 85.3798 124.506 76.6862C124.506 67.9926 128.516 49.9372 128.516 49.9372C128.516 49.9372 132.526 35.2291 133.868 33.8867C135.205 32.5559 137.883 38.5763 137.883 38.5763Z" fill="#FFD180"/>
<g opacity="0.1">
<path opacity="0.1" d="M161.942 64.4419C160.913 60.0951 159.344 55.8994 157.264 51.9478L157.688 53.6389C159.495 57.0733 160.925 60.6995 161.942 64.4419Z" fill="white"/>
<path opacity="0.1" d="M125.709 74.8847C125.709 66.2027 128.946 51.6282 128.946 51.6282C128.946 51.6282 132.956 36.9201 134.298 35.5777C135.635 34.2411 138.308 40.2615 138.308 40.2615C138.308 40.2615 144.996 38.9249 148.338 40.2615C148.338 40.2615 150.343 35.5777 152.348 35.5777C153.115 35.5777 153.702 36.6876 154.12 38.0416C153.713 36.06 153.016 33.8866 151.929 33.8866C149.924 33.8866 147.919 38.5705 147.919 38.5705C144.578 37.2339 137.889 38.5705 137.889 38.5705C137.889 38.5705 135.216 32.5559 133.88 33.8866C132.543 35.2232 128.527 49.9372 128.527 49.9372C128.527 49.9372 125.291 64.4942 125.291 73.1936C125.285 73.9839 125.709 75.1404 125.709 74.8847Z" fill="white"/>
</g>
<path d="M150.924 51.6107C151.662 51.6107 152.26 51.0123 152.26 50.2742C152.26 49.536 151.662 48.9376 150.924 48.9376C150.186 48.9376 149.587 49.536 149.587 50.2742C149.587 51.0123 150.186 51.6107 150.924 51.6107Z" fill="#58555D"/>
<path d="M135.542 51.6107C136.28 51.6107 136.878 51.0123 136.878 50.2742C136.878 49.536 136.28 48.9376 135.542 48.9376C134.803 48.9376 134.205 49.536 134.205 50.2742C134.205 51.0123 134.803 51.6107 135.542 51.6107Z" fill="#58555D"/>
<path d="M143.567 52.9532C144.674 52.9532 145.572 52.3548 145.572 51.6166C145.572 50.8784 144.674 50.28 143.567 50.28C142.46 50.28 141.562 50.8784 141.562 51.6166C141.562 52.3548 142.46 52.9532 143.567 52.9532Z" fill="#58555D"/>
<path d="M160.876 48.5989L154.857 49.9357L155.002 50.5881L161.021 49.2513L160.876 48.5989Z" fill="#FFD180"/>
<path d="M161.551 51.2811L154.866 52.6131L154.996 53.2685L161.681 51.9365L161.551 51.2811Z" fill="#FFD180"/>
<path d="M124.299 46.621L124.051 47.2415L130.737 49.9157L130.985 49.2951L124.299 46.621Z" fill="#FFD180"/>
<path d="M122.228 49.9489L122.126 50.6094L130.822 51.9476L130.924 51.2871L122.228 49.9489Z" fill="#FFD180"/>
<path opacity="0.1" d="M141.899 60.1706C140.15 60.1706 138.401 60.0253 136.675 59.729C133.357 59.1595 130.166 58.0088 127.243 56.341L127.476 55.2601C130.428 56.8582 133.618 57.9798 136.925 58.5783C141.736 59.4035 150.017 59.1536 158.432 54.5105L158.996 55.5333C152.888 58.9096 146.461 60.1706 141.899 60.1706Z" fill="black"/>
<path d="M158.438 54.2607C150.012 58.9039 141.742 59.1538 136.93 58.3286C133.624 57.73 130.434 56.6085 127.481 55.0104L126.865 55.9983C129.928 57.6835 133.24 58.8574 136.681 59.4734C138.407 59.7698 140.156 59.9209 141.905 59.9209C146.467 59.9209 152.888 58.6598 159.013 55.2893L158.438 54.2607ZM142.114 59.8221C142.044 59.8221 141.986 59.764 141.986 59.6942C141.986 59.6245 142.044 59.5664 142.114 59.5664C142.184 59.5664 142.242 59.6245 142.242 59.6942C142.242 59.764 142.184 59.8221 142.114 59.8221Z" fill="#F55F44"/>
<path opacity="0.1" d="M140.818 61.6351C140.818 62.3499 141.399 62.9252 142.108 62.9252C142.823 62.9252 143.398 62.3441 143.398 61.6351C143.398 60.9204 142.817 60.345 142.108 60.345C141.399 60.3392 140.818 60.9204 140.818 61.6351ZM142.114 60.9843C141.998 60.9843 141.899 60.8855 141.899 60.7693C141.899 60.653 141.998 60.5542 142.114 60.5542C142.23 60.5542 142.329 60.653 142.329 60.7693C142.329 60.8913 142.23 60.9843 142.114 60.9843Z" fill="url(#paint8_linear)"/>
<path d="M140.952 61.6352C140.952 62.2802 141.475 62.7974 142.114 62.7974C142.759 62.7974 143.276 62.2744 143.276 61.6352C143.276 60.9901 142.753 60.4729 142.114 60.4729C141.475 60.4671 140.952 60.9901 140.952 61.6352ZM142.114 61.0482C142.01 61.0482 141.922 60.9611 141.922 60.8565C141.922 60.7519 142.01 60.6647 142.114 60.6647C142.219 60.6647 142.306 60.7519 142.306 60.8565C142.312 60.9611 142.225 61.0482 142.114 61.0482Z" fill="#4D8AF0"/>
<path d="M156.723 54.6501C138.924 65.1219 128.667 55.4172 128.667 55.4172L156.723 54.6501Z" fill="#FFD180"/>
<path d="M205.549 106.091C204.457 102.999 192.782 111.71 192.782 111.71L190.08 111.548L184.885 106.736L188.511 103.11L158.06 76.9941C156.415 75.5878 154.254 74.937 152.109 75.2043L126.79 78.3598C126.68 76.907 125.785 75.1868 124.524 73.426C121.926 69.1664 116.458 64.3548 114.441 62.6463L111.344 41.8363L113.965 37.9022C113.477 37.7685 113 37.6116 112.535 37.4198L113.087 36.5888L112.884 36.5307L113.139 36.2285H113.11L119.642 28.6682C120.653 27.5001 120.555 25.7451 119.427 24.6991L104.806 13.5881C105.248 12.5304 105.463 11.3914 105.428 10.2408C105.544 8.03257 104.556 5.79525 101.244 4.13906C99.1926 3.16278 97.0482 2.40151 94.84 1.8785C91.2022 0.942899 87.3784 1.00101 83.7638 2.04122C83.7057 1.96567 83.6418 1.89594 83.5721 1.81458C79.0742 -3.32834 73.17 4.06352 72.9376 4.3657L49.8787 30.0396C48.577 32.1026 49.0826 34.8222 51.0351 36.2866L63.2445 45.4451L63.2038 45.5265L63.8953 46.0378C63.3839 47.0606 62.6692 47.7463 61.7394 47.8509L63.6106 48.7865C63.3142 48.9957 62.9713 49.1236 62.6169 49.1643L71.1768 53.4471C71.1768 57.8985 71.6358 78.261 78.8708 88.262C79.6146 89.494 80.4921 90.633 81.4975 91.6616C81.4975 91.6616 82.1134 91.3245 83.235 90.7841L84.5251 93.3701C87.4365 99.1929 93.7533 102.505 100.198 101.581L140.382 95.8399L139.958 97.1183L140.191 97.0835L127.168 136.158L129.318 136.873L129.277 136.948L129.579 137.076L126.871 142.184L118.346 148.745C118.346 148.745 143.271 161.204 145.891 159.24C148.512 157.276 136.698 148.745 136.698 148.745L136.041 146.124L138.912 140.069L141.318 140.871L160.629 102.244L161.285 100.93L174.355 117.277L178.039 113.593L178.44 113.994L178.475 113.959L183.583 119.131L187.285 129.231C187.273 129.225 206.636 109.188 205.549 106.091ZM104.161 30.981L103.905 30.6846C102.348 32.6314 99.5935 34.9907 96.5194 36.5888V34.4387L96.6647 34.3108V33.3752C100.628 29.7316 102.18 24.1528 100.674 18.9867L109.159 25.501L104.161 30.981ZM75.3666 6.76573L75.1632 6.56233L75.3666 6.76573ZM68.585 20.4221C68.5268 21.102 68.5036 21.7877 68.5152 22.4792C68.4978 23.4787 68.5559 24.4841 68.6838 25.4778C69.1196 28.9471 70.3632 31.7888 72.9259 33.137C75.1574 34.3108 76.6277 34.2469 77.5633 33.445L77.6679 33.5379C77.7492 34.8978 78.0979 36.2227 78.7023 37.4431C73.9196 36.4435 69.352 34.6072 65.2145 32.0096C65.2145 32.0096 65.2319 32.1839 65.2493 32.4977L61.7394 28.9878L68.585 20.4221Z" fill="url(#paint9_linear)"/>
<path d="M132.613 129.568L126.883 140.394L135.797 144.218L141.533 132.113L132.613 129.568Z" fill="#FDA57D"/>
<path d="M135.797 144.218L136.431 146.769C136.431 146.769 147.896 155.05 145.351 156.962C142.8 158.874 118.596 146.769 118.596 146.769L126.877 140.4L135.797 144.218Z" fill="#333333"/>
<path opacity="0.1" d="M140.923 133.241L131.898 130.231L129.213 135.298L138.133 139.122L140.923 133.241Z" fill="black"/>
<path d="M173.355 109.275L181.967 117.998L188.29 110.635L178.457 101.535L173.355 109.275Z" fill="#FDA57D"/>
<path opacity="0.1" d="M178.818 101.959L173.71 109.705L176.975 113.006L183.594 106.387L178.818 101.959Z" fill="black"/>
<path d="M188.29 110.629L190.911 110.786C190.911 110.786 202.248 102.331 203.312 105.335C204.375 108.34 185.564 127.807 185.564 127.807L181.973 117.998L188.29 110.629Z" fill="#333333"/>
<path d="M106.637 45.4393L119.869 30.1151C120.851 28.9819 120.758 27.2793 119.66 26.2565L90.865 4.43542L87.3667 9.89214L109.688 27.0701L100.215 37.4605L106.637 45.4393Z" fill="#FDA57D"/>
<path opacity="0.1" d="M105.12 32.0967L100.488 37.1757L106.921 45.1719L113.564 37.4953C110.321 36.4667 107.41 34.6072 105.12 32.0967Z" fill="black"/>
<path d="M68.213 48.7633L53.2318 37.5302C51.3373 36.1065 50.8492 33.4682 52.1102 31.4633L74.5298 6.51584L79.1265 11.1125L63.6164 30.4348L72.7864 39.6048L68.213 48.7633Z" fill="#FDA57D"/>
<path opacity="0.1" d="M65.0459 46.5027L67.4982 48.3391L72.0949 39.169L66.3244 33.4159C66.4464 35.3685 66.7893 42.9521 65.0459 46.5027Z" fill="black"/>
<path d="M140.923 93.2654L127.168 134.531L140.923 139.116L163.842 93.2654L145.502 88.6862L140.923 93.2654Z" fill="#4D8AF0"/>
<path opacity="0.1" d="M140.284 94.5439L139.592 96.6069L154.039 94.5439L159.681 101.599L163.203 94.5439L144.869 89.9589L140.284 94.5439Z" fill="black"/>
<path d="M74.5007 6.53916C74.5007 6.53916 80.3759 -1.03284 84.8389 4.06358C89.3019 9.16001 77.8305 9.79924 77.8305 9.79924L74.5007 6.53916Z" fill="#FDA57D"/>
<path d="M81.3173 84.1012L85.7454 92.9633C88.5755 98.6234 94.7063 101.837 100.971 100.936L154.666 93.2771L173.006 116.202L186.762 102.447L157.177 77.0871C155.579 75.7214 153.481 75.088 151.395 75.3495L81.3173 84.1012Z" fill="#4D8AF0"/>
<path opacity="0.1" d="M67.8469 34.6421C67.8469 34.6421 69.0556 49.5304 64.4706 50.0418L73.6407 54.6385C73.6407 54.6385 73.1293 81.6373 82.8107 91.313C82.8107 91.313 100.64 81.6315 119.485 82.1429C138.331 82.6543 114.889 63.8027 114.889 63.8027L111.791 42.9347L114.342 39.1051C110.89 38.0707 107.799 36.0833 105.422 33.3695C102.871 36.554 97.0308 40.8717 91.9634 40.8717H89.7726C82.2238 40.8717 74.1927 39.3376 67.8295 35.2814L67.8469 34.6421Z" fill="black"/>
<path d="M66.9926 33.3694C66.9926 33.3694 68.213 48.2577 63.6163 48.7691L72.7864 53.3657C72.7864 53.3657 72.275 80.3646 81.9565 90.0402C81.9565 90.0402 99.7853 80.3588 118.631 80.8701C137.477 81.3815 114.034 62.53 114.034 62.53L110.937 41.662L113.488 37.8324C110.036 36.798 106.945 34.8105 104.568 32.0967C102.017 35.2812 96.1765 39.599 91.1091 39.599H88.9183C81.3696 39.599 73.3385 37.4372 66.9752 33.3694H66.9926Z" fill="#3AD29F"/>
<path d="M79.0741 29.1679V34.276C79.0741 36.8678 80.1027 39.3549 81.939 41.1913L92.8292 52.0815L96.4554 44.8291C97.0888 43.5681 97.4143 42.1734 97.4143 40.7613V29.1679H79.0741Z" fill="#FDA57D"/>
<path opacity="0.1" d="M79.2136 35.0663C79.2136 35.2581 79.2136 35.444 79.2311 35.63C84.4553 40.2848 92.3411 40.2789 97.5538 35.6125V29.9466H79.2136V35.0663Z" fill="black"/>
<path d="M88.2384 38.3438C95.8351 38.3438 101.994 32.1854 101.994 24.5887C101.994 16.992 95.8351 10.8336 88.2384 10.8336C80.6417 10.8336 74.4833 16.992 74.4833 24.5887C74.4833 32.1854 80.6417 38.3438 88.2384 38.3438Z" fill="#FDA57D"/>
<path opacity="0.1" d="M79.0741 20.7068H101.999C101.999 20.7068 111.169 11.5367 101.999 6.95168C100.006 6.00445 97.9256 5.26643 95.7755 4.75504C81.8344 1.22183 68.5791 12.7513 70.3689 27.0236C70.7931 30.3941 72.0019 33.1544 74.4891 34.4561C84.1647 39.5467 79.0741 20.7068 79.0741 20.7068Z" fill="black"/>
<path d="M79.0741 20.0734H101.999C101.999 20.0734 111.169 10.9033 101.999 6.31826C100.006 5.37103 97.9256 4.63301 95.7755 4.12162C81.8344 0.588408 68.5791 12.1178 70.3689 26.3902C70.7931 29.7607 72.0019 32.521 74.4891 33.8227C84.1647 38.9191 79.0741 20.0734 79.0741 20.0734Z" fill="#333333"/>
<path d="M79.7366 27.0004C80.4395 27.0004 81.0093 26.0013 81.0093 24.7689C81.0093 23.5365 80.4395 22.5374 79.7366 22.5374C79.0338 22.5374 78.464 23.5365 78.464 24.7689C78.464 26.0013 79.0338 27.0004 79.7366 27.0004Z" fill="#FDA57D"/>
<path opacity="0.1" d="M72.7283 53.1158L73.3675 51.2039L75.2794 52.4766L72.7283 53.1158Z" fill="black"/>
<path opacity="0.1" d="M114.069 62.5359C114.069 62.5359 107.131 65.8541 105.219 69.0503L114.069 62.5359Z" fill="black"/>
<path opacity="0.1" d="M110.954 41.6504L110.315 43.5623L109.042 41.6504H110.954Z" fill="black"/>
<path d="M79.0741 20.0734H101.999C101.999 20.0734 111.169 10.9033 101.999 6.31826C100.006 5.37103 97.9256 4.63301 95.7755 4.12162C81.8344 0.588408 68.5791 12.1178 70.3689 26.3902C70.7931 29.7607 72.0019 32.521 74.4891 33.8227C84.1647 38.9191 79.0741 20.0734 79.0741 20.0734Z" fill="#333333"/>
<path opacity="0.1" d="M140.743 71.5665C140.743 71.5665 145.392 81.678 139.284 82.5496C133.176 83.4213 135.966 74.0827 135.966 74.0827C135.966 74.0827 135.356 71.3108 133.868 71.1539" fill="black"/>
<path opacity="0.1" d="M146.362 71.3224C146.362 71.3224 140.836 80.9806 146.839 82.3811C152.842 83.7816 150.895 74.2396 150.895 74.2396C150.895 74.2396 151.749 71.5374 153.243 71.5083" fill="black"/>
<path d="M140.208 71.2817C140.208 71.2817 144.857 81.3932 138.749 82.2649C132.642 83.1365 135.431 73.7979 135.431 73.7979C135.431 73.7979 134.821 71.0202 133.339 70.8633" fill="#FFD180"/>
<path d="M146.792 70.8924C146.792 70.8924 141.254 80.5564 147.269 81.9453C153.283 83.3342 151.325 73.8038 151.325 73.8038C151.325 73.8038 152.179 71.1016 153.673 71.0725" fill="#FFD180"/>
<path opacity="0.5" d="M136.896 80.1612H136.791V82.137H136.896V80.1612Z" fill="#58555D"/>
<path opacity="0.5" d="M138.587 80.1612H138.482V82.137H138.587V80.1612Z" fill="#58555D"/>
<path opacity="0.5" d="M137.669 79.5336H137.564V82.2939H137.669V79.5336Z" fill="#58555D"/>
<path opacity="0.5" d="M147.879 79.737H147.774V81.7128H147.879V79.737Z" fill="#58555D"/>
<path opacity="0.5" d="M149.57 79.737H149.465V81.7128H149.57V79.737Z" fill="#58555D"/>
<path opacity="0.5" d="M148.652 79.1094H148.547V81.8697H148.652V79.1094Z" fill="#58555D"/>
<g opacity="0.5">
<path opacity="0.5" d="M140.586 196.304C147.297 196.304 152.737 190.864 152.737 184.153C152.737 177.442 147.297 172.001 140.586 172.001C133.875 172.001 128.434 177.442 128.434 184.153C128.434 190.864 133.875 196.304 140.586 196.304Z" fill="url(#paint10_linear)"/>
</g>
<path d="M140.586 195.531C146.87 195.531 151.964 190.437 151.964 184.153C151.964 177.869 146.87 172.774 140.586 172.774C134.302 172.774 129.207 177.869 129.207 184.153C129.207 190.437 134.302 195.531 140.586 195.531Z" fill="#3F3D56"/>
<g opacity="0.5">
<path opacity="0.5" d="M110.304 199.39C108.671 199.936 106.631 199.547 105.875 197.978C105.44 197.071 105.544 196.06 105.643 195.078C105.753 194.003 105.852 193.073 105.242 192.474C104.928 192.207 104.562 192.015 104.167 191.911C103.656 191.742 103.103 191.597 102.58 191.457C101.645 191.242 100.727 190.94 99.8434 190.557C98.1058 189.743 96.9959 188.366 96.8739 186.872C96.7693 185.594 97.3852 184.432 97.9722 183.316C98.5591 182.2 99.1519 181.09 98.8729 179.998C98.4952 178.522 96.717 177.819 95.1537 177.191L94.8981 177.092C92.9862 176.325 90.9406 174.71 91.452 172.635C91.6322 171.914 92.0854 171.357 92.5271 170.845C92.8293 170.514 93.085 170.148 93.2942 169.747C93.9857 168.294 93.0385 166.615 92.6201 165.958C92.2888 165.447 91.8995 164.976 91.5217 164.511C90.929 163.825 90.406 163.081 89.9585 162.297L89.8888 162.163C88.8544 160.199 88.8312 160.118 88.9183 157.985V157.729L89.8249 157.764V158.02C89.7493 159.961 89.7493 159.961 90.6907 161.739L90.7605 161.873C91.1847 162.611 91.6728 163.302 92.2307 163.941C92.6201 164.424 93.0268 164.924 93.3813 165.458C94.4796 167.114 94.747 168.817 94.1193 170.136C93.8753 170.595 93.5731 171.025 93.2186 171.415C92.8234 171.885 92.4515 172.327 92.3237 172.85C91.9227 174.46 93.9624 175.744 95.2293 176.25L95.4734 176.348C97.1528 177.011 99.239 177.842 99.733 179.765C100.099 181.195 99.4192 182.479 98.7567 183.729C98.2046 184.775 97.6758 185.774 97.763 186.791C97.8734 188.163 99.1054 189.209 100.215 189.732C101.046 190.092 101.912 190.371 102.795 190.574C103.336 190.714 103.894 190.865 104.44 191.045C104.969 191.19 105.463 191.457 105.87 191.824C106.782 192.73 106.654 193.968 106.532 195.165C106.439 196.06 106.352 196.903 106.677 197.577C107.27 198.797 109.095 198.977 110.367 198.379C111.408 197.89 112.227 197.054 113.099 196.17C113.378 195.886 113.668 195.589 113.965 195.31C115.586 193.776 117.219 193.108 118.701 193.369C119.171 193.468 119.631 193.613 120.066 193.811C120.409 193.962 120.758 194.084 121.124 194.171C122.792 194.468 124.413 193.433 124.837 191.789C124.872 191.638 124.895 191.481 124.919 191.312C125 190.783 125.087 190.179 125.511 189.708C125.936 189.243 126.61 189.069 127.086 188.959L132.014 187.82L132.218 188.703L127.29 189.842C126.825 189.947 126.418 190.063 126.186 190.318C125.953 190.574 125.883 190.998 125.819 191.446C125.796 191.62 125.767 191.8 125.726 191.98C125.186 194.107 123.088 195.45 120.932 195.043C120.52 194.938 120.119 194.805 119.735 194.636C119.357 194.468 118.962 194.334 118.555 194.247C117.056 193.991 115.574 195.031 114.598 195.955C114.313 196.223 114.029 196.513 113.755 196.792C112.872 197.693 111.954 198.623 110.768 199.181C110.606 199.262 110.46 199.332 110.304 199.39Z" fill="url(#paint11_linear)"/>
</g>
<path opacity="0.2" d="M110.426 198.942C108.793 199.489 106.753 199.099 105.997 197.53C105.562 196.624 105.666 195.612 105.765 194.63C105.875 193.555 105.974 192.625 105.364 192.027C105.05 191.76 104.684 191.568 104.289 191.463C103.778 191.295 103.226 191.149 102.703 191.01C101.767 190.795 100.849 190.493 99.9654 190.109C98.2279 189.296 97.118 187.918 96.9959 186.425C96.8913 185.146 97.5073 183.984 98.0942 182.868C98.6812 181.753 99.2739 180.643 98.995 179.55C98.6173 178.074 96.839 177.371 95.2758 176.743L95.0201 176.645C93.1082 175.878 91.0627 174.262 91.5741 172.187C91.7542 171.467 92.2075 170.909 92.6491 170.398C92.9513 170.066 93.207 169.7 93.4162 169.299C94.1078 167.847 93.1605 166.167 92.7421 165.51C92.4109 164.999 92.0215 164.528 91.6438 164.063C91.0511 163.378 90.5281 162.634 90.0806 161.849L90.0109 161.716C88.9765 159.752 88.9532 159.67 89.0404 157.537V157.282L89.9469 157.317V157.572C89.8714 159.513 89.8714 159.513 90.8128 161.291L90.8825 161.425C91.3068 162.163 91.7949 162.855 92.3528 163.494C92.7421 163.976 93.1489 164.476 93.5034 165.011C94.6017 166.667 94.869 168.37 94.2414 169.689C93.9973 170.148 93.6952 170.578 93.3407 170.967C92.9455 171.438 92.5736 171.879 92.4458 172.402C92.0448 174.012 94.0845 175.296 95.3514 175.802L95.5954 175.901C97.2749 176.563 99.3611 177.394 99.855 179.318C100.221 180.747 99.5412 182.032 98.8788 183.281C98.3267 184.327 97.7979 185.327 97.885 186.344C97.9955 187.715 99.2274 188.761 100.337 189.284C101.168 189.644 102.034 189.923 102.918 190.127C103.458 190.266 104.016 190.417 104.562 190.597C105.091 190.743 105.585 191.01 105.992 191.376C106.904 192.283 106.776 193.52 106.654 194.718C106.561 195.612 106.474 196.455 106.799 197.129C107.392 198.35 109.217 198.53 110.49 197.931C111.53 197.443 112.349 196.606 113.221 195.723C113.5 195.438 113.79 195.142 114.087 194.863C115.708 193.329 117.341 192.66 118.823 192.922C119.294 193.021 119.753 193.166 120.188 193.363C120.531 193.515 120.88 193.637 121.246 193.724C122.914 194.02 124.535 192.986 124.959 191.341C124.994 191.19 125.018 191.033 125.041 190.865C125.122 190.336 125.209 189.731 125.634 189.261C126.058 188.796 126.732 188.622 127.208 188.511L132.136 187.372L132.34 188.255L127.412 189.394C126.947 189.499 126.54 189.615 126.308 189.871C126.075 190.127 126.005 190.551 125.942 190.998C125.918 191.173 125.889 191.353 125.849 191.533C125.308 193.66 123.21 195.002 121.054 194.595C120.642 194.491 120.241 194.357 119.857 194.189C119.479 194.02 119.084 193.887 118.678 193.799C117.178 193.544 115.696 194.584 114.72 195.508C114.435 195.775 114.151 196.066 113.877 196.345C112.994 197.245 112.076 198.175 110.891 198.733C110.728 198.814 110.583 198.884 110.426 198.942Z" fill="black"/>
<path opacity="0.2" d="M139.923 176.046C139.923 176.046 146.217 175.093 149.303 183.88" stroke="black" stroke-width="0.4395" stroke-miterlimit="10"/>
<path opacity="0.2" d="M132.956 190.039C132.956 190.039 128.283 183.426 136.611 176.133" stroke="black" stroke-width="0.4395" stroke-miterlimit="10"/>
<path opacity="0.2" d="M134.868 187.628C134.868 187.628 132.613 184.158 134.978 181.044" stroke="black" stroke-width="0.4395" stroke-miterlimit="10"/>
<path opacity="0.2" d="M138.906 179.725C138.906 179.725 141.893 180.904 142.312 186.221" stroke="black" stroke-width="0.4395" stroke-miterlimit="10"/>
<path opacity="0.2" d="M142.41 173.507C142.41 173.507 147.071 174.396 150.325 180.811" stroke="black" stroke-width="0.4395" stroke-miterlimit="10"/>
<path opacity="0.2" d="M136.402 175.523C136.402 175.523 138.604 173.966 140.65 174.779" stroke="black" stroke-width="0.4395" stroke-miterlimit="10"/>
<path opacity="0.2" d="M138.069 190.231C138.069 190.231 141.016 192.108 148.611 186.698" stroke="black" stroke-width="0.4395" stroke-miterlimit="10"/>
<path opacity="0.2" d="M137.547 193.956C137.547 193.956 139.389 195.793 143.23 194.229" stroke="black" stroke-width="0.4395" stroke-miterlimit="10"/>
<path opacity="0.2" d="M132.078 177.656C130.474 180.033 129.974 182.985 130.707 185.757" stroke="black" stroke-width="0.4395" stroke-miterlimit="10"/>
<path opacity="0.2" d="M134.554 189.505C134.554 189.505 134.31 191.225 136.233 192.079" stroke="black" stroke-width="0.4395" stroke-miterlimit="10"/>
<path opacity="0.2" d="M149.837 187.517C149.837 187.517 149.721 190.836 147.879 191.039" stroke="black" stroke-width="0.4395" stroke-miterlimit="10"/>
<path opacity="0.2" d="M139.749 192.399C141.998 192.701 144.258 191.945 145.88 190.353" stroke="black" stroke-width="0.4395" stroke-miterlimit="10"/>
<path opacity="0.2" d="M142.591 180.538C142.591 180.538 144.189 181.637 144.026 183.601" stroke="black" stroke-width="0.4395" stroke-miterlimit="10"/>
<path opacity="0.2" d="M136.5 182.717C136.5 182.717 136.059 185.048 137.204 186.437" stroke="black" stroke-width="0.4395" stroke-miterlimit="10"/>
<path opacity="0.2" d="M137.849 182.264C137.849 182.264 139.487 184.31 139.04 185.821" stroke="black" stroke-width="0.4395" stroke-miterlimit="10"/>
<defs>
<linearGradient id="paint0_linear" x1="124.144" y1="157.406" x2="124.144" y2="23.1429" gradientUnits="userSpaceOnUse">
<stop stop-color="#808080" stop-opacity="0.25"/>
<stop offset="0.54" stop-color="#808080" stop-opacity="0.12"/>
<stop offset="1" stop-color="#808080" stop-opacity="0.1"/>
</linearGradient>
<linearGradient id="paint1_linear" x1="108.047" y1="103.316" x2="76.571" y2="58.5661" gradientUnits="userSpaceOnUse">
<stop stop-color="#808080" stop-opacity="0.25"/>
<stop offset="0.54" stop-color="#808080" stop-opacity="0.12"/>
<stop offset="1" stop-color="#808080" stop-opacity="0.1"/>
</linearGradient>
<linearGradient id="paint2_linear" x1="90.4767" y1="72.2683" x2="86.4598" y2="66.5575" gradientUnits="userSpaceOnUse">
<stop stop-color="#808080" stop-opacity="0.25"/>
<stop offset="0.54" stop-color="#808080" stop-opacity="0.12"/>
<stop offset="1" stop-color="#808080" stop-opacity="0.1"/>
</linearGradient>
<linearGradient id="paint3_linear" x1="107.179" y1="81.8567" x2="103.162" y2="76.1458" gradientUnits="userSpaceOnUse">
<stop stop-color="#808080" stop-opacity="0.25"/>
<stop offset="0.54" stop-color="#808080" stop-opacity="0.12"/>
<stop offset="1" stop-color="#808080" stop-opacity="0.1"/>
</linearGradient>
<linearGradient id="paint4_linear" x1="81.273" y1="91.5406" x2="77.2561" y2="85.8298" gradientUnits="userSpaceOnUse">
<stop stop-color="#808080" stop-opacity="0.25"/>
<stop offset="0.54" stop-color="#808080" stop-opacity="0.12"/>
<stop offset="1" stop-color="#808080" stop-opacity="0.1"/>
</linearGradient>
<linearGradient id="paint5_linear" x1="97.0223" y1="101.8" x2="93.0053" y2="96.0896" gradientUnits="userSpaceOnUse">
<stop stop-color="#808080" stop-opacity="0.25"/>
<stop offset="0.54" stop-color="#808080" stop-opacity="0.12"/>
<stop offset="1" stop-color="#808080" stop-opacity="0.1"/>
</linearGradient>
<linearGradient id="paint6_linear" x1="163.141" y1="71.6157" x2="163.141" y2="36.5431" gradientUnits="userSpaceOnUse">
<stop stop-color="#808080" stop-opacity="0.25"/>
<stop offset="0.54" stop-color="#808080" stop-opacity="0.12"/>
<stop offset="1" stop-color="#808080" stop-opacity="0.1"/>
</linearGradient>
<linearGradient id="paint7_linear" x1="143.713" y1="92.6842" x2="143.713" y2="32.5359" gradientUnits="userSpaceOnUse">
<stop stop-color="#808080" stop-opacity="0.25"/>
<stop offset="0.54" stop-color="#808080" stop-opacity="0.12"/>
<stop offset="1" stop-color="#808080" stop-opacity="0.1"/>
</linearGradient>
<linearGradient id="paint8_linear" x1="142.113" y1="62.9249" x2="142.113" y2="60.3403" gradientUnits="userSpaceOnUse">
<stop stop-color="white"/>
<stop offset="1"/>
</linearGradient>
<linearGradient id="paint9_linear" x1="127.376" y1="159.443" x2="127.376" y2="0.0131138" gradientUnits="userSpaceOnUse">
<stop stop-color="#808080" stop-opacity="0.25"/>
<stop offset="0.54" stop-color="#808080" stop-opacity="0.12"/>
<stop offset="1" stop-color="#808080" stop-opacity="0.1"/>
</linearGradient>
<linearGradient id="paint10_linear" x1="144.434" y1="195.664" x2="136.704" y2="172.617" gradientUnits="userSpaceOnUse">
<stop stop-color="#808080" stop-opacity="0.25"/>
<stop offset="0.54" stop-color="#808080" stop-opacity="0.12"/>
<stop offset="1" stop-color="#808080" stop-opacity="0.1"/>
</linearGradient>
<linearGradient id="paint11_linear" x1="117.149" y1="197.081" x2="102.426" y2="153.185" gradientUnits="userSpaceOnUse">
<stop stop-color="#808080" stop-opacity="0.25"/>
<stop offset="0.54" stop-color="#808080" stop-opacity="0.12"/>
<stop offset="1" stop-color="#808080" stop-opacity="0.1"/>
</linearGradient>
</defs>
</svg>
