<svg width="282" height="212" viewBox="0 0 282 212" fill="none" xmlns="http://www.w3.org/2000/svg">
<g clip-path="url(#clip0_663_1792)">
<path d="M72.6361 187.021C72.6361 187.021 73.996 181.345 83.4959 183.237C92.9959 185.129 94.3558 187.021 94.3558 187.021H72.6361Z" fill="#3F3D56"/>
<path d="M25.7946 179.589C25.7946 179.589 27.1545 173.913 36.6544 175.805C46.1543 177.697 47.5142 179.589 47.5142 179.589H25.7946Z" fill="#3F3D56"/>
<path d="M105.221 187.021C105.221 187.021 97.6167 182.427 94.3607 187.021H105.221Z" fill="#3F3D56"/>
<path d="M69.7846 174.049C69.7846 174.049 62.1808 169.455 58.9248 174.049H69.7846Z" fill="#3F3D56"/>
<path d="M27.1301 169.828C29.3917 174.005 34.1978 175.8 34.1978 175.8C34.1978 175.8 35.3335 170.818 33.0669 166.641C30.8004 162.464 25.9993 160.669 25.9993 160.669C25.9993 160.669 24.8684 165.646 27.1301 169.828Z" fill="#3F3D56"/>
<path d="M28.685 168.45C32.7696 170.895 34.344 175.756 34.344 175.756C34.344 175.756 29.2943 176.649 25.2048 174.204C21.1202 171.759 19.5458 166.898 19.5458 166.898C19.5458 166.898 24.6004 166.005 28.685 168.45Z" fill="#6C63FF"/>
<path d="M253.081 183.644C253.081 183.644 254.441 177.968 263.941 179.86C273.446 181.752 274.801 183.644 274.801 183.644H253.081Z" fill="#3F3D56"/>
<path d="M231.356 187.021C224.752 185.992 218.406 185.119 212.308 184.396L214.657 179.725C213.843 179.453 210.314 182.155 210.314 182.155L213.302 168.639C209.227 169.178 207.326 182.965 207.326 182.965L202.711 178.371L204.982 183.572C186.333 181.621 170.238 181.01 156.707 181.151L158.715 177.153C157.901 176.882 154.373 179.584 154.373 179.584L157.36 166.068C153.286 166.607 151.385 180.394 151.385 180.394L146.769 175.8L149.177 181.311C139.911 181.578 130.664 182.32 121.471 183.533C123.475 177.318 130.474 171.342 130.474 171.342C125.093 173.01 122.29 175.722 120.843 178.24C120.55 165.472 122.524 152.752 126.672 140.667C126.672 140.667 115.812 164.991 117.44 181.209L117.645 184.091C108.194 185.556 103.451 187.021 103.451 187.021H231.356Z" fill="#3F3D56"/>
<path d="M160.48 199.319C160.48 199.319 210.446 192.022 241.402 199.319H160.48Z" fill="#3F3D56"/>
<path d="M86.8933 209.317C86.8933 209.317 136.859 202.021 167.816 209.317H86.8933Z" fill="#3F3D56"/>
<path d="M179.49 212C179.49 212 209.081 204.529 227.418 212H179.49Z" fill="#3F3D56"/>
<path d="M262.147 182.01L261.665 181.762C267.933 169.702 264.579 154.037 260.665 143.025C258.009 135.622 254.616 128.5 250.542 121.762L251 121.471C255.094 128.243 258.501 135.399 261.177 142.841C265.13 153.96 268.503 169.78 262.147 182.01Z" fill="#3F3D56"/>
<path d="M266.806 121.581L263.282 140.77L263.814 140.866L267.338 121.678L266.806 121.581Z" fill="#3F3D56"/>
<path d="M243.369 137.929L242.973 138.296L261.165 157.755L261.561 157.389L243.369 137.929Z" fill="#3F3D56"/>
<path d="M276.06 159.292L266.831 171.998L267.27 172.313L276.498 159.607L276.06 159.292Z" fill="#3F3D56"/>
<path d="M268.425 116.479C269.925 116.479 271.14 115.269 271.14 113.777C271.14 112.284 269.925 111.074 268.425 111.074C266.926 111.074 265.71 112.284 265.71 113.777C265.71 115.269 266.926 116.479 268.425 116.479Z" fill="#6C63FF"/>
<path d="M238.824 137.291C240.323 137.291 241.539 136.081 241.539 134.588C241.539 133.096 240.323 131.886 238.824 131.886C237.324 131.886 236.109 133.096 236.109 134.588C236.109 136.081 237.324 137.291 238.824 137.291Z" fill="#3F3D56"/>
<path d="M250.771 139.993C252.27 139.993 253.486 138.783 253.486 137.291C253.486 135.798 252.27 134.589 250.771 134.589C249.271 134.589 248.056 135.798 248.056 137.291C248.056 138.783 249.271 139.993 250.771 139.993Z" fill="#3F3D56"/>
<path d="M245.341 150.535C246.84 150.535 248.056 149.325 248.056 147.832C248.056 146.34 246.84 145.13 245.341 145.13C243.841 145.13 242.626 146.34 242.626 147.832C242.626 149.325 243.841 150.535 245.341 150.535Z" fill="#6C63FF"/>
<path d="M279.285 157.292C280.784 157.292 282 156.082 282 154.59C282 153.098 280.784 151.888 279.285 151.888C277.786 151.888 276.57 153.098 276.57 154.59C276.57 156.082 277.786 157.292 279.285 157.292Z" fill="#3F3D56"/>
<path d="M270.321 160.261C271.821 160.261 273.036 159.052 273.036 157.559C273.036 156.067 271.821 154.857 270.321 154.857C268.822 154.857 267.606 156.067 267.606 157.559C267.606 159.052 268.822 160.261 270.321 160.261Z" fill="#3F3D56"/>
<path d="M276.57 168.911C278.069 168.911 279.285 167.701 279.285 166.209C279.285 164.717 278.069 163.507 276.57 163.507C275.071 163.507 273.855 164.717 273.855 166.209C273.855 167.701 275.071 168.911 276.57 168.911Z" fill="#3F3D56"/>
<path d="M248.056 119.724C249.555 119.724 250.771 118.514 250.771 117.022C250.771 115.53 249.555 114.32 248.056 114.32C246.556 114.32 245.341 115.53 245.341 117.022C245.341 118.514 246.556 119.724 248.056 119.724Z" fill="#3F3D56"/>
<path d="M89.1404 102.696C89.1404 136.102 69.1852 147.769 44.5702 147.769C19.9552 147.769 0 136.102 0 102.696C0 69.2906 44.5702 26.7887 44.5702 26.7887C44.5702 26.7887 89.1404 69.2857 89.1404 102.696Z" fill="#6B57A1"/>
<path d="M42.9471 142.656L43.4004 114.698L62.4002 80.1089L43.4735 110.313L43.6782 97.7383L56.7705 72.7156L43.7318 94.4152L44.1023 71.8035L58.1206 51.8794L44.1608 68.2475L44.3898 26.7887L42.9422 81.671L43.0592 79.4103L28.8069 57.6912L42.835 83.7522L41.5043 109.008L41.4653 108.338L25.0342 85.4841L41.4165 110.706L41.2508 113.864L41.2216 113.912L41.2313 114.17L37.8632 178.235H42.367L42.9081 145.145L59.2466 119.986L42.9471 142.656Z" fill="#3F3D56"/>
<path d="M236.153 92.7367C236.153 133.55 211.777 147.803 181.702 147.803C151.628 147.803 127.252 133.55 127.252 92.7367C127.252 51.923 181.702 0 181.702 0C181.702 0 236.153 51.923 236.153 92.7367Z" fill="#6B57A1"/>
<path d="M179.719 141.555L180.274 107.397L203.486 65.1427L180.362 102.041L180.616 86.6823L196.608 56.1097L180.679 82.6169L181.132 54.9939L198.26 30.6551L181.205 50.652L181.483 0L179.714 67.0541L179.86 64.2889L162.444 37.7573L179.582 69.5962L177.959 100.445L177.91 99.6303L157.833 71.7113L177.847 102.522L177.647 106.378L177.608 106.437L177.628 106.752L173.509 185.022H179.012L179.67 144.597L199.635 113.859L179.719 141.555Z" fill="#3F3D56"/>
<path d="M137.722 151.519L140.203 159.165C140.203 159.165 137.956 166.34 139.024 174.335C140.086 182.33 139.496 182.567 139.496 182.567C139.496 182.567 128.871 181.961 129.933 185.134C130.996 188.306 141.383 186.448 141.383 186.448C141.383 186.448 143.376 185.915 144.322 180.268C145.268 174.621 147.641 163.749 147.641 163.749L145.409 153.484L137.722 151.519Z" fill="#FFB8B8"/>
<path d="M138.551 135.879C138.551 135.879 134.062 137.523 134.062 141.992C134.062 146.46 135.714 152.577 136.781 152.926C137.844 153.28 144.936 158.103 146.233 154.692C147.529 151.282 138.551 135.879 138.551 135.879Z" fill="#6C63FF"/>
<path d="M176.121 188.796L185.573 188.442L192.782 187.385L190.652 194.438L173.168 194.909L176.121 188.796Z" fill="#FFB8B8"/>
<path d="M189.706 189.738C189.706 189.738 189.589 187.152 188.526 187.268C187.464 187.385 188.171 186.327 189.116 186.094C190.062 185.861 192.777 184.683 192.777 184.683L203.529 185.386C203.529 185.386 210.5 191.499 207.663 194.793C204.826 198.087 197.5 195.147 197.5 195.147L189.584 195.263C189.589 195.263 186.991 191.028 189.706 189.738Z" fill="#2F2E41"/>
<path d="M193.961 180.68L197.388 196.675L204.475 195.263L200.459 175.271L196.208 173.035L193.961 180.68Z" fill="#FFB8B8"/>
<path d="M153.198 178.682C153.198 178.682 133.35 187.618 141.738 196.675C141.738 196.675 141.738 200.91 150.6 200.085C159.461 199.261 176.594 197.732 177.418 198.203C178.247 198.674 180.845 188.913 178.598 188.442C176.35 187.972 173.636 187.385 173.636 187.385C173.636 187.385 176 187.031 176 185.032C176 185.032 182.736 184.561 184.744 180.326C186.752 176.091 188.643 172.918 188.643 172.918L193.25 184.678C193.25 184.678 198.567 174.917 202.584 179.269C202.584 179.269 198.095 151.165 194.668 148.575C191.241 145.984 188.877 145.164 185.69 147.517C182.502 149.87 179.548 155.866 179.548 155.866L153.198 178.682Z" fill="#2F2E41"/>
<path d="M200.58 191.853C199.757 192.474 198.967 193.138 198.216 193.851C197.271 194.793 195.969 194.322 195.852 193.851C195.735 193.381 193.605 194.206 193.371 197.616C193.137 201.026 191.719 204.083 195.497 205.14C199.274 206.198 199.157 209.254 199.157 209.254C202.15 210.68 205.581 210.894 208.725 209.841C214.043 208.075 212.152 206.198 212.152 206.198L205.065 194.555C205.07 194.555 203.178 191.028 200.58 191.853Z" fill="#2F2E41"/>
<path d="M180.966 133.526C180.966 133.526 192.309 137.407 193.488 138.232C194.668 139.056 199.986 142.937 197.388 144.936C194.79 146.935 192.66 148.23 187.581 146.702C182.502 145.174 176.828 140.468 176.828 140.468L180.966 133.526Z" fill="#FFB8B8"/>
<path d="M169.624 128.35C169.624 128.35 174.113 127.525 177.306 129.291C180.494 131.057 183.213 134.584 183.213 134.584C183.213 134.584 180.26 140.818 178.134 141.759C176.009 142.7 172.11 137.994 172.11 137.994L169.624 128.35Z" fill="#6C63FF"/>
<path d="M148.947 124.939C148.947 124.939 149.064 129.524 148.592 129.994C148.119 130.465 154.265 144.339 160.997 138.227C167.733 132.114 162.532 129.64 162.532 129.64C162.532 129.64 160.051 125.056 160.168 124.585C160.285 124.115 149.181 124.585 149.181 124.585L148.947 124.939Z" fill="#FFB8B8"/>
<path opacity="0.1" d="M148.947 124.939C148.947 124.939 149.064 129.524 148.592 129.994C148.119 130.465 154.265 144.339 160.997 138.227C167.733 132.114 162.532 129.64 162.532 129.64C162.532 129.64 160.051 125.056 160.168 124.585C160.285 124.115 149.181 124.585 149.181 124.585L148.947 124.939Z" fill="black"/>
<path d="M150.834 133.759C150.834 133.759 155.323 136.815 157.214 136.112C159.105 135.408 161.469 132.347 161.703 132.114C161.937 131.881 173.991 155.987 173.991 155.987C173.991 155.987 172.217 164.807 167.494 167.393C162.766 169.978 162.829 172.035 162.235 173.801C161.645 175.567 154.022 168.217 154.022 168.217L149.177 147.755V135.292L150.834 133.759Z" fill="#6C63FF"/>
<path d="M148.889 128.292C148.889 128.292 147.412 127.996 145.877 129.291C144.341 130.586 137.132 135.403 137.488 135.874C137.844 136.345 141.032 143.049 141.743 145.751C142.45 148.458 143.518 148.808 143.518 148.808C143.518 148.808 145.999 150.573 145.643 151.864C145.287 153.154 143.751 170.798 145.877 174.679C148.002 178.56 147.651 181.971 147.056 182.912C146.462 183.853 152.73 180.205 152.73 180.205C152.73 180.205 162.064 172.681 162.771 170.444C163.229 168.906 163.546 167.334 163.716 165.738C163.716 165.738 157.692 141.987 155.801 140.691C153.909 139.406 148.889 128.292 148.889 128.292Z" fill="#575A89"/>
<path d="M161.869 128.384C161.869 128.384 164.779 126.584 165.369 127.054C165.959 127.525 171.51 127.525 171.632 127.996C171.754 128.466 171.988 139.755 176.004 142.695C180.021 145.635 177.423 151.514 177.423 151.514L180.377 156.22C180.377 156.22 164.306 171.623 165.374 166.335C165.432 166.039 165.374 165.981 165.374 165.981C165.374 165.981 159.11 139.289 159.939 137.878C160.768 136.466 162.264 130.067 161.869 128.384Z" fill="#575A89"/>
<path d="M186.635 139.168L170.565 144.694C170.565 144.694 154.616 148.458 157.097 152.81C159.578 157.161 170.092 149.754 170.092 149.754L191.49 147.367C191.495 147.367 199.986 140.231 186.635 139.168Z" fill="#FFB8B8"/>
<path d="M155.328 129.291C160.157 129.291 164.072 125.394 164.072 120.588C164.072 115.781 160.157 111.885 155.328 111.885C150.499 111.885 146.583 115.781 146.583 120.588C146.583 125.394 150.499 129.291 155.328 129.291Z" fill="#FFB8B8"/>
<path d="M148.363 111.943L146.744 111.356C146.744 111.356 150.127 107.989 154.831 108.285L153.51 106.97C153.51 106.97 156.746 105.801 159.686 108.872C161.231 110.487 163.02 112.384 164.136 114.524H165.866L165.145 115.964L167.674 117.4L165.076 117.143C165.32 118.385 165.237 119.671 164.833 120.869L164.243 122.48C164.243 122.48 161.889 117.798 161.889 117.211V118.676C161.889 118.676 160.27 117.362 160.27 116.484L159.388 117.507L158.95 115.897L153.51 117.507L154.392 116.192L151.009 116.629L152.33 115.018C152.33 115.018 148.509 116.92 148.363 118.531C148.216 120.141 146.306 122.189 146.306 122.189L145.423 120.724C145.423 120.724 144.098 114.136 148.363 111.943Z" fill="#2F2E41"/>
</g>
<defs>
<clipPath id="clip0_663_1792">
<rect width="282" height="212" fill="white"/>
</clipPath>
</defs>
</svg>
