<svg width="221" height="240" viewBox="0 0 221 240" fill="none" xmlns="http://www.w3.org/2000/svg">
<path d="M221 215.931C221 223.21 171.726 239.793 110.948 239.793C50.1689 239.793 0.890015 223.21 0.890015 215.931C0.890015 208.652 50.1636 213.44 110.942 213.44C171.721 213.44 221 208.652 221 215.931Z" fill="#3F3D56"/>
<path opacity="0.1" d="M221 215.931C221 223.21 171.726 239.793 110.948 239.793C50.1689 239.793 0.890015 223.21 0.890015 215.931C0.890015 208.652 50.1636 213.44 110.942 213.44C171.721 213.44 221 208.652 221 215.931Z" fill="black"/>
<path d="M32.2315 119.055C34.7878 119.055 36.86 116.983 36.86 114.427C36.86 111.871 34.7878 109.798 32.2315 109.798C29.6753 109.798 27.603 111.871 27.603 114.427C27.603 116.983 29.6753 119.055 32.2315 119.055Z" fill="#6C63FF"/>
<path d="M52.5334 157.163C55.0896 157.163 57.1619 155.09 57.1619 152.534C57.1619 149.978 55.0896 147.906 52.5334 147.906C49.9772 147.906 47.9049 149.978 47.9049 152.534C47.9049 155.09 49.9772 157.163 52.5334 157.163Z" fill="#6C63FF"/>
<path d="M36.8601 147.546C39.4163 147.546 41.4886 145.473 41.4886 142.917C41.4886 140.361 39.4163 138.289 36.8601 138.289C34.3038 138.289 32.2316 140.361 32.2316 142.917C32.2316 145.473 34.3038 147.546 36.8601 147.546Z" fill="#6C63FF"/>
<path d="M38.3411 208.637C38.2618 208.504 36.331 205.283 35.6645 198.602C35.0509 192.471 35.4476 182.135 40.8061 167.721C50.9571 140.415 38.4681 118.378 38.3411 118.161L38.96 117.802C38.9917 117.86 42.2185 123.478 44.1228 132.423C46.6407 144.282 45.7203 156.612 41.4832 167.969C31.3481 195.232 38.8807 208.134 38.96 208.261L38.3411 208.637Z" fill="#CFCCE0"/>
<path d="M34.3686 116.918C31.6126 116.918 29.3804 114.686 29.3804 111.93C29.3804 109.174 31.6126 106.942 34.3686 106.942C37.1245 106.942 39.3568 109.174 39.3568 111.93C39.3515 114.686 37.1245 116.918 34.3686 116.918ZM34.3686 107.661C32.0094 107.661 30.0945 109.576 30.0945 111.936C30.0945 114.295 32.0094 116.21 34.3686 116.21C36.7278 116.21 38.6426 114.295 38.6426 111.936C38.6426 109.571 36.7278 107.661 34.3686 107.661Z" fill="#CFCCE0"/>
<path d="M48.9735 133.655C51.5297 133.655 53.602 131.583 53.602 129.027C53.602 126.47 51.5297 124.398 48.9735 124.398C46.4172 124.398 44.345 126.47 44.345 129.027C44.345 131.583 46.4172 133.655 48.9735 133.655Z" fill="#CFCCE0"/>
<path d="M38.9971 145.414C36.2412 145.414 34.0089 143.182 34.0089 140.426C34.0089 137.67 36.2412 135.438 38.9971 135.438C41.753 135.438 43.9853 137.67 43.9853 140.426C43.9853 143.176 41.753 145.409 38.9971 145.414ZM38.9971 136.152C36.6379 136.152 34.723 138.067 34.723 140.426C34.723 142.785 36.6379 144.7 38.9971 144.7C41.3563 144.7 43.2712 142.785 43.2712 140.426C43.2712 138.067 41.3563 136.157 38.9971 136.152Z" fill="#CFCCE0"/>
<path d="M51.1105 155.031C48.3546 155.031 46.1223 152.798 46.1223 150.043C46.1223 147.287 48.3546 145.054 51.1105 145.054C53.8664 145.054 56.0987 147.287 56.0987 150.043C56.0934 152.793 53.8612 155.025 51.1105 155.031ZM51.1105 145.768C48.7513 145.768 46.8364 147.683 46.8364 150.043C46.8364 152.402 48.7513 154.317 51.1105 154.317C53.4697 154.317 55.3846 152.402 55.3846 150.043C55.3793 147.683 53.4697 145.768 51.1105 145.768Z" fill="#CFCCE0"/>
<path d="M35.4371 169.63C37.9933 169.63 40.0656 167.558 40.0656 165.002C40.0656 162.446 37.9933 160.373 35.4371 160.373C32.8808 160.373 30.8086 162.446 30.8086 165.002C30.8086 167.558 32.8808 169.63 35.4371 169.63Z" fill="#CFCCE0"/>
<path d="M41.1341 208.811C41.1341 208.811 36.5056 197.412 50.3964 188.864L41.1341 208.811Z" fill="#CFCCE0"/>
<path d="M35.4424 208.605C35.4424 208.605 33.3371 196.486 17.0237 196.587L35.4424 208.605Z" fill="#CFCCE0"/>
<path d="M202.597 213.085H123.791C123.791 213.085 122.194 189.657 131.646 189.387C141.099 189.123 140.036 199.771 151.879 185.129C163.728 170.487 178.106 171.286 179.968 179.935C181.83 188.589 176.376 195.513 186.358 193.381C196.339 191.249 210.722 196.841 202.597 213.085Z" fill="#6C63FF"/>
<path d="M161.866 213.091L161.602 213.08C162.221 197.655 165.453 187.742 168.055 182.146C170.88 176.068 173.599 173.608 173.625 173.582L173.8 173.783C173.774 173.809 171.081 176.243 168.283 182.278C165.696 187.848 162.48 197.719 161.866 213.091Z" fill="#F2F2F2"/>
<path d="M190.388 213.122L190.135 213.048C193.213 202.485 200.46 195.814 200.534 195.751L200.714 195.947C200.635 196.01 193.441 202.633 190.388 213.122Z" fill="#F2F2F2"/>
<path d="M136.201 213.101L135.936 213.064C136.978 205.532 135.095 199.692 133.328 196.116C131.414 192.244 129.234 190.128 129.213 190.107L129.398 189.916C129.419 189.938 131.636 192.085 133.566 196C135.349 199.607 137.253 205.505 136.201 213.101Z" fill="#F2F2F2"/>
<path d="M213.293 213.44H115.29L115.269 213.106C115.211 212.281 113.963 192.799 120.273 185.848C121.686 184.293 123.384 183.479 125.325 183.426C129.44 183.309 132.027 184.849 134.111 186.087C138.042 188.419 140.639 189.959 150.081 178.29C160.311 165.647 171.346 162.928 177.688 164.441C181.787 165.42 184.612 168.181 185.437 172.021C186.22 175.655 185.972 179.072 185.771 181.818C185.554 184.754 185.384 187.076 186.59 188.123C187.595 189.001 189.606 189.081 192.912 188.372C199.64 186.938 209.024 188.165 213.737 194.254C216.271 197.528 218.27 203.484 213.388 213.244L213.293 213.44ZM115.957 212.725H212.854C216.493 205.346 216.604 199.11 213.182 194.688C208.86 189.102 199.794 187.631 193.07 189.07C189.479 189.837 187.336 189.71 186.13 188.657C184.654 187.372 184.834 184.896 185.067 181.76C185.263 179.062 185.511 175.703 184.75 172.164C183.983 168.604 181.354 166.039 177.529 165.129C171.388 163.663 160.66 166.351 150.642 178.734C140.813 190.884 137.851 189.128 133.757 186.695C131.646 185.441 129.25 184.024 125.357 184.135C123.616 184.182 122.088 184.923 120.813 186.325C115.127 192.577 115.819 210.091 115.957 212.725Z" fill="#CFCCE0"/>
<path d="M110.942 229.108C171.723 229.108 220.995 223.208 220.995 215.931C220.995 208.654 171.723 202.754 110.942 202.754C50.1621 202.754 0.890015 208.654 0.890015 215.931C0.890015 223.208 50.1621 229.108 110.942 229.108Z" fill="#3F3D56"/>
<path d="M113.365 43.5395C113.365 43.5395 107.864 41.577 104.325 49.4322C100.786 57.2875 95.2848 65.9361 95.2848 65.9361L98.4269 66.7243C98.4269 66.7243 99.215 61.223 101.178 60.4348L100.389 67.5072C100.389 67.5072 123.971 75.7591 134.582 66.719L134.191 63.9684C134.191 63.9684 135.762 64.3598 135.762 66.719L136.941 65.5394C136.941 65.5394 135.762 63.1802 132.223 60.0381C129.901 57.9751 129.102 54.0502 128.827 51.5957C128.621 49.5486 127.801 47.6073 126.473 46.031C124.13 43.312 119.85 40.4186 113.365 43.5395Z" fill="#2F2E41"/>
<path d="M107.562 74.3574L101.865 67.2322L97.5912 52.6273L113.973 35.1765C113.973 35.1765 117.533 21.6402 114.328 22.3543C111.122 23.0684 110.408 33.0395 110.408 33.0395L89.7518 49.0673C89.7518 49.0673 91.8889 71.5062 97.9456 79.3403L102.574 93.9452L107.562 74.3574Z" fill="#FFB9B9"/>
<path d="M123.23 74.3574L128.927 67.2322L133.201 52.6273L116.819 35.1765C116.819 35.1765 113.259 21.6402 116.465 22.3543C119.67 23.0684 120.385 33.0395 120.385 33.0395L141.041 49.0673C141.041 49.0673 138.904 71.5062 132.847 79.3403L128.219 93.9452L123.23 74.3574Z" fill="#FFB9B9"/>
<path d="M115.396 68.306C120.512 68.306 124.659 64.1591 124.659 59.0437C124.659 53.9283 120.512 49.7814 115.396 49.7814C110.281 49.7814 106.134 53.9283 106.134 59.0437C106.134 64.1591 110.281 68.306 115.396 68.306Z" fill="#FFB9B9"/>
<path d="M111.122 64.0267C111.122 64.0267 111.477 71.5063 109.34 73.9978C107.203 76.4892 105.065 89.3115 115.396 89.6712C125.727 90.0256 124.659 78.986 124.659 78.986L122.522 72.9292C122.522 72.9292 119.316 68.3008 120.384 64.0267H111.122Z" fill="#FFB9B9"/>
<path d="M101.506 147.017L109.165 149.334C109.165 149.334 115.396 145.594 115.396 149.154C115.396 152.714 113.259 157.348 113.973 160.553C114.687 163.759 116.11 171.593 113.973 171.593C111.836 171.593 107.562 157.702 107.562 157.702L100.437 153.782L101.506 147.017Z" fill="#FFB9B9"/>
<path d="M111.122 196.878L108.271 207.917C108.271 207.917 105.78 211.123 108.271 212.546C109.44 213.212 110.297 214.588 110.879 215.857C111.916 218.2 114.301 219.65 116.862 219.475C118.078 219.375 119.099 218.893 119.348 217.645C119.485 216.852 119.29 216.037 118.798 215.402C116.169 211.853 115.576 209.52 115.576 209.52L116.645 197.052L111.122 196.878Z" fill="#FFB9B9"/>
<path d="M104.224 60.6887C104.224 60.6887 107.366 56.3671 110.117 55.5789C112.868 54.7907 113.259 50.8605 113.259 50.8605C113.259 50.8605 120.332 58.721 124.658 59.1124C128.98 59.5039 125.05 49.6809 125.05 49.6809L117.189 47.7184L109.72 48.5065L103.828 52.4368L104.224 60.6887Z" fill="#2F2E41"/>
<path d="M98.2999 119.944L96.877 122.795C96.877 122.795 62.3299 133.835 65.1758 144.166C68.0269 154.496 84.0548 151.645 84.0548 151.645L101.865 154.851L103.648 147.017L91.18 143.811L112.55 135.977L113.265 172.307L110.413 198.306L117.539 199.02C117.539 199.02 125.373 175.158 124.304 165.187C124.304 165.187 137.481 124.583 130.001 118.532C122.522 112.47 98.2999 119.944 98.2999 119.944Z" fill="#2F2E41"/>
<path d="M115.814 78.9913L110.255 72.2733L106.488 73.9978L102.569 86.4656C102.569 86.4656 99.3632 92.5223 103.283 98.9334C103.283 98.9334 103.997 103.208 102.928 104.276C101.86 105.345 101.506 112.11 101.506 112.11L96.8771 121.013C96.8771 121.013 123.236 125.641 131.07 119.23C131.07 119.23 126.96 104.07 129.451 99.4413C131.943 94.8128 132.302 87.714 129.451 84.5084C126.6 81.3029 123.59 72.9292 123.59 72.9292L121.866 71.8237L115.814 78.9913Z" fill="#CFCCE0"/>
<path d="M136.592 25.819H133.175V22.4019H132.863V25.819H129.451V26.1258H132.863V29.543H133.175V26.1258H136.592V25.819Z" fill="#CFCCE0"/>
<path d="M104.129 18.6726H100.712V15.2608H100.4V18.6726H96.9828V18.9847H100.4V22.4019H100.712V18.9847H104.129V18.6726Z" fill="#CFCCE0"/>
<path d="M119.707 3.41715H116.296V0H115.983V3.41715H112.566V3.72395H115.983V7.1411H116.296V3.72395H119.707V3.41715Z" fill="#CFCCE0"/>
</svg>
